# xmcd
#
# Track frame offsets:
#	150
#	11255
#	24143
#	39041
#	54966
#	73745
#	87960
#	99412
#	114753
#	129620
#	144356
#	160483
#	185281
#	198951
#	215481
#	229118
#	243442
#
# Disc length: 3641 seconds
#
# Revision: 1
# Processed by: cddbd v1.4PL0 Copyright (c) Steve Scherf et al.
# Submitted via: audiograbber 1.81.02
#
DISCID=cf0e3711
DTITLE=Roy Orbison - Black and White Night
DYEAR=1999
DGENRE=
TTITLE0=Only The Lonely
TTITLE1=Dream Baby (How Long Must I Dream)
TTITLE2=Blue Bayou
TTITLE3=The Comedians
TTITLE4=Ooby Dooby
TTITLE5=Lean
TTITLE6=Running Scared
TTITLE7=Uptown
TTITLE8=In Dreams
TTITLE9=Crying
TTITLE10=Candy Man
TTITLE11=Go, Go, Go (Down The Line)
TTITLE12=Mean Woman Blues
TTITLE13=(All I Can Do Is) Dream You
TTITLE14=Claudette
TTITLE15=It's Over
TTITLE16=Oh Pretty Woman
EXTD=
EXTT0=
EXTT1=
EXTT2=
EXTT3=
EXTT4=
EXTT5=
EXTT6=
EXTT7=
EXTT8=
EXTT9=
EXTT10=
EXTT11=
EXTT12=
EXTT13=
EXTT14=
EXTT15=
EXTT16=
PLAYORDER=
